{
  "accessors": [
    {
      "bufferView": 2,
      "componentType": 5126,
      "count": 387,
      "max": [
        0.9729480743408203,
        9.314412117004395,
        2.3654253482818604
      ],
      "min": [
        -0.46069106459617615,
        3.4416921138763428,
        -2.3654253482818604
      ],
      "type": "VEC3"
    },
    {
      "bufferView": 2,
      "byteOffset": 4644,
      "componentType": 5126,
      "count": 387,
      "max": [
        0.999656617641449,
        0.9985976815223694,
        0.9882412552833557
      ],
      "min": [
        -0.7185893058776855,
        -0.9929432272911072,
        -0.9882412552833557
      ],
      "type": "VEC3"
    },
    {
      "bufferView": 3,
      "componentType": 5126,
      "count": 387,
      "max": [
        0.9840058088302612,
        0.9999605417251587,
        0.9934349656105042,
        1.0
      ],
      "min": [
        -0.999033510684967,
        -0.6272951364517212,
        -0.9494730234146118,
        -1.0
      ],
      "type": "VEC4"
    },
    {
      "bufferView": 1,
      "componentType": 5126,
      "count": 387,
      "max": [
        0.9951046705245972,
        0.7470253109931946
      ],
      "min": [
        0.6348801255226135,
        0.43091973662376404
      ],
      "type": "VEC2"
    },
    {
      "bufferView": 0,
      "componentType": 5125,
      "count": 2088,
      "type": "SCALAR"
    },
    {
      "bufferView": 2,
      "byteOffset": 9288,
      "componentType": 5126,
      "count": 44,
      "max": [
        0.49999967217445374,
        0.4999990463256836,
        0.5000002384185791
      ],
      "min": [
        -3.0826447010040283,
        -0.5,
        -4.239346027374268
      ],
      "type": "VEC3"
    },
    {
      "bufferView": 2,
      "byteOffset": 9816,
      "componentType": 5126,
      "count": 44,
      "max": [
        0.7553935647010803,
        0.9146519303321838,
        0.8379067182540894
      ],
      "min": [
        -0.765083372592926,
        -0.9146519303321838,
        -0.8767781257629395
      ],
      "type": "VEC3"
    },
    {
      "bufferView": 3,
      "byteOffset": 6192,
      "componentType": 5126,
      "count": 44,
      "max": [
        0.9072731733322144,
        0.7335205078125,
        0.43941646814346313,
        1.0
      ],
      "min": [
        -0.9646376371383667,
        -0.5533657073974609,
        -0.9526180028915405,
        1.0
      ],
      "type": "VEC4"
    },
    {
      "bufferView": 1,
      "byteOffset": 3096,
      "componentType": 5126,
      "count": 44,
      "max": [
        0.6300610303878784,
        0.7629936933517456
      ],
      "min": [
        0.2235250473022461,
        0.6111409664154053
      ],
      "type": "VEC2"
    },
    {
      "bufferView": 0,
      "byteOffset": 8352,
      "componentType": 5125,
      "count": 180,
      "type": "SCALAR"
    },
    {
      "bufferView": 2,
      "byteOffset": 10344,
      "componentType": 5126,
      "count": 44,
      "max": [
        0.5309616923332214,
        1.1867589950561523,
        0.6383347511291504
      ],
      "min": [
        -3.03176212310791,
        -0.8564653396606445,
        -4.338159084320068
      ],
      "type": "VEC3"
    },
    {
      "bufferView": 2,
      "byteOffset": 10872,
      "componentType": 5126,
      "count": 44,
      "max": [
        0.9022770524024963,
        0.7958278656005859,
        0.9050630331039429
      ],
      "min": [
        -0.8342713117599487,
        -0.7388935089111328,
        -0.9458461403846741
      ],
      "type": "VEC3"
    },
    {
      "bufferView": 3,
      "byteOffset": 6896,
      "componentType": 5126,
      "count": 44,
      "max": [
        0.9058297872543335,
        0.6865937113761902,
        0.7643199563026428,
        1.0
      ],
      "min": [
        -0.955102801322937,
        -0.6511808037757874,
        -0.9570670127868652,
        -1.0
      ],
      "type": "VEC4"
    },
    {
      "bufferView": 1,
      "byteOffset": 3448,
      "componentType": 5126,
      "count": 44,
      "max": [
        0.9930076599121094,
        0.9765386581420898
      ],
      "min": [
        0.5806740522384644,
        0.7481807470321655
      ],
      "type": "VEC2"
    },
    {
      "bufferView": 0,
      "byteOffset": 9072,
      "componentType": 5125,
      "count": 180,
      "type": "SCALAR"
    },
    {
      "bufferView": 2,
      "byteOffset": 11400,
      "componentType": 5126,
      "count": 136,
      "max": [
        0.17696937918663025,
        10.591405868530273,
        4.529497146606445
      ],
      "min": [
        -1.0565307140350342,
        0.8330756425857544,
        -4.529497146606445
      ],
      "type": "VEC3"
    },
    {
      "bufferView": 2,
      "byteOffset": 13032,
      "componentType": 5126,
      "count": 136,
      "max": [
        0.9999999403953552,
        1.0,
        0.9229224920272827
      ],
      "min": [
        -0.9999997615814209,
        -1.0,
        -0.9229224920272827
      ],
      "type": "VEC3"
    },
    {
      "bufferView": 3,
      "byteOffset": 7600,
      "componentType": 5126,
      "count": 136,
      "max": [
        0.9915167689323425,
        0.6315827369689941,
        1.0,
        1.0
      ],
      "min": [
        -0.9915167689323425,
        -0.6315827369689941,
        -1.0,
        1.0
      ],
      "type": "VEC4"
    },
    {
      "bufferView": 1,
      "byteOffset": 3800,
      "componentType": 5126,
      "count": 136,
      "max": [
        0.9977388978004456,
        0.6253201961517334
      ],
      "min": [
        0.0,
        0.0
      ],
      "type": "VEC2"
    },
    {
      "bufferView": 0,
      "byteOffset": 9792,
      "componentType": 5125,
      "count": 276,
      "type": "SCALAR"
    },
    {
      "bufferView": 2,
      "byteOffset": 14664,
      "componentType": 5126,
      "count": 334,
      "max": [
        0.5,
        11.23599910736084,
        5.048701763153076
      ],
      "min": [
        -1.6472680568695068,
        5.960464477539063e-08,
        -5.048701763153076
      ],
      "type": "VEC3"
    },
    {
      "bufferView": 2,
      "byteOffset": 18672,
      "componentType": 5126,
      "count": 334,
      "max": [
        0.9999998211860657,
        0.9999970197677612,
        0.9591202139854431
      ],
      "min": [
        -0.9999998211860657,
        -0.9999369382858276,
        -0.9591202139854431
      ],
      "type": "VEC3"
    },
    {
      "bufferView": 3,
      "byteOffset": 9776,
      "componentType": 5126,
      "count": 334,
      "max": [
        0.9943217635154724,
        0.9762974381446838,
        0.9176516532897949,
        1.0
      ],
      "min": [
        -0.9947049021720886,
        -0.9993932843208313,
        -0.9999187588691711,
        1.0
      ],
      "type": "VEC4"
    },
    {
      "bufferView": 1,
      "byteOffset": 4888,
      "componentType": 5126,
      "count": 334,
      "max": [
        0.5852998495101929,
        0.9403339624404907
      ],
      "min": [
        0.0013768672943115234,
        0.011968433856964111
      ],
      "type": "VEC2"
    },
    {
      "bufferView": 0,
      "byteOffset": 10896,
      "componentType": 5125,
      "count": 624,
      "type": "SCALAR"
    }
  ],
  "asset": {
    "extras": {
      "author": "Eques_inferno (https://sketchfab.com/Eques_inferno)",
      "license": "CC-BY-4.0 (http://creativecommons.org/licenses/by/4.0/)",
      "source": "https://sketchfab.com/3d-models/fox-shield-462d3296495944f890e24749d251c573",
      "title": "Fox shield"
    },
    "generator": "Sketchfab-12.68.0",
    "version": "2.0"
  },
  "bufferViews": [
    {
      "buffer": 0,
      "byteLength": 13392,
      "name": "floatBufferViews",
      "target": 34963
    },
    {
      "buffer": 0,
      "byteLength": 7560,
      "byteOffset": 13392,
      "byteStride": 8,
      "name": "floatBufferViews",
      "target": 34962
    },
    {
      "buffer": 0,
      "byteLength": 22680,
      "byteOffset": 20952,
      "byteStride": 12,
      "name": "floatBufferViews",
      "target": 34962
    },
    {
      "buffer": 0,
      "byteLength": 15120,
      "byteOffset": 43632,
      "byteStride": 16,
      "name": "floatBufferViews",
      "target": 34962
    }
  ],
  "buffers": [
    {
      "byteLength": 58752,
      "uri": "scene.bin"
    }
  ],
  "images": [
    {
      "uri": "textures/lambert1_baseColor.png"
    },
    {
      "uri": "textures/lambert1_metallicRoughness.png"
    },
    {
      "uri": "textures/lambert1_normal.png"
    }
  ],
  "materials": [
    {
      "doubleSided": true,
      "name": "lambert1",
      "normalTexture": {
        "index": 2
      },
      "occlusionTexture": {
        "index": 1
      },
      "pbrMetallicRoughness": {
        "baseColorTexture": {
          "index": 0
        },
        "metallicRoughnessTexture": {
          "index": 1
        }
      }
    }
  ],
  "meshes": [
    {
      "name": "Fox_low_lambert1_0",
      "primitives": [
        {
          "attributes": {
            "NORMAL": 1,
            "POSITION": 0,
            "TANGENT": 2,
            "TEXCOORD_0": 3
          },
          "indices": 4,
          "material": 0,
          "mode": 4
        }
      ]
    },
    {
      "name": "handle2_low_lambert1_0",
      "primitives": [
        {
          "attributes": {
            "NORMAL": 6,
            "POSITION": 5,
            "TANGENT": 7,
            "TEXCOORD_0": 8
          },
          "indices": 9,
          "material": 0,
          "mode": 4
        }
      ]
    },
    {
      "name": "handle1_low_lambert1_0",
      "primitives": [
        {
          "attributes": {
            "NORMAL": 11,
            "POSITION": 10,
            "TANGENT": 12,
            "TEXCOORD_0": 13
          },
          "indices": 14,
          "material": 0,
          "mode": 4
        }
      ]
    },
    {
      "name": "Metal_low_lambert1_0",
      "primitives": [
        {
          "attributes": {
            "NORMAL": 16,
            "POSITION": 15,
            "TANGENT": 17,
            "TEXCOORD_0": 18
          },
          "indices": 19,
          "material": 0,
          "mode": 4
        }
      ]
    },
    {
      "name": "shield_low_lambert1_0",
      "primitives": [
        {
          "attributes": {
            "NORMAL": 21,
            "POSITION": 20,
            "TANGENT": 22,
            "TEXCOORD_0": 23
          },
          "indices": 24,
          "material": 0,
          "mode": 4
        }
      ]
    }
  ],
  "nodes": [
    {
      "children": [
        1
      ],
      "matrix": [
        0.021127676591277122,
        0.0,
        0.0,
        0.0,
        0.0,
        4.691286601693961e-18,
        -0.021127676591277122,
        0.0,
        0.0,
        0.021127676591277122,
        4.691286601693961e-18,
        0.0,
        0.0,
        0.0,
        0.0,
        1.0
      ],
      "name": "Sketchfab_model"
    },
    {
      "children": [
        2
      ],
      "matrix": [
        1.0,
        0.0,
        0.0,
        0.0,
        0.0,
        0.0,
        1.0,
        0.0,
        0.0,
        -1.0,
        0.0,
        0.0,
        0.0,
        0.0,
        0.0,
        1.0
      ],
      "name": "28fa980f36e6443f9deffce7f77b49fc.fbx"
    },
    {
      "children": [
        3
      ],
      "name": "RootNode"
    },
    {
      "children": [
        4,
        6,
        8,
        10,
        12
      ],
      "name": "LowPoly"
    },
    {
      "children": [
        5
      ],
      "matrix": [
        0.9997713168320519,
        -0.02138490214859333,
        0.0,
        0.0,
        0.02138490214859333,
        0.9997713168320519,
        0.0,
        0.0,
        0.0,
        0.0,
        1.0,
        0.0,
        0.05050325766205788,
        -0.36671897768974304,
        0.0,
        1.0
      ],
      "name": "Fox_low"
    },
    {
      "mesh": 0,
      "name": "Fox_low_lambert1_0"
    },
    {
      "children": [
        7
      ],
      "matrix": [
        0.4052720865850845,
        0.0,
        0.07385414353065253,
        0.0,
        0.0,
        0.6900038123130798,
        0.0,
        0.0,
        -0.11150827304759486,
        0.0,
        0.6118978344220035,
        0.0,
        -0.42510488629341125,
        4.311509132385254,
        1.2416969537734985,
        1.0
      ],
      "name": "handle2_low"
    },
    {
      "mesh": 1,
      "name": "handle2_low_lambert1_0"
    },
    {
      "children": [
        9
      ],
      "matrix": [
        0.4152673145031195,
        0.0,
        0.04456579815249503,
        0.0,
        0.0,
        0.6900038123130798,
        0.0,
        0.0,
        -0.10676256989917525,
        0.0,
        0.9948213098254581,
        0.0,
        -0.4905564785003662,
        7.457442760467529,
        2.0189759731292725,
        1.0
      ],
      "name": "handle1_low"
    },
    {
      "mesh": 2,
      "name": "handle1_low_lambert1_0"
    },
    {
      "children": [
        11
      ],
      "name": "Metal_low"
    },
    {
      "mesh": 3,
      "name": "Metal_low_lambert1_0"
    },
    {
      "children": [
        13
      ],
      "name": "shield_low"
    },
    {
      "mesh": 4,
      "name": "shield_low_lambert1_0"
    }
  ],
  "samplers": [
    {
      "magFilter": 9729,
      "minFilter": 9987,
      "wrapS": 10497,
      "wrapT": 10497
    }
  ],
  "scene": 0,
  "scenes": [
    {
      "name": "Sketchfab_Scene",
      "nodes": [
        0
      ]
    }
  ],
  "textures": [
    {
      "sampler": 0,
      "source": 0
    },
    {
      "sampler": 0,
      "source": 1
    },
    {
      "sampler": 0,
      "source": 2
    }
  ]
}
